<svg width="96" height="18" viewBox="0 0 96 18" fill="none" xmlns="http://www.w3.org/2000/svg">
<path d="M0 3.04261V0H14.3352V3.04261H8.99148V17.4545H5.34375V3.04261H0Z" fill="#043A53"/>
<path d="M15.2685 17.4545V4.36364H18.7883V6.64773H18.9247C19.1633 5.83523 19.5639 5.22159 20.1264 4.80682C20.6889 4.38636 21.3366 4.17614 22.0696 4.17614C22.2514 4.17614 22.4474 4.1875 22.6577 4.21023C22.8679 4.23295 23.0526 4.2642 23.2116 4.30398V7.52557C23.0412 7.47443 22.8054 7.42898 22.5043 7.3892C22.2031 7.34943 21.9276 7.32955 21.6776 7.32955C21.1435 7.32955 20.6662 7.44602 20.2457 7.67898C19.831 7.90625 19.5014 8.22443 19.2571 8.63352C19.0185 9.04261 18.8991 9.5142 18.8991 10.0483V17.4545H15.2685Z" fill="#043A53"/>
<path d="M33.4837 11.8807V4.36364H37.1143V17.4545H33.6285V15.0767H33.4922C33.1967 15.8438 32.7052 16.4602 32.0177 16.9261C31.3359 17.392 30.5035 17.625 29.5206 17.625C28.6456 17.625 27.8757 17.4261 27.2109 17.0284C26.5462 16.6307 26.0263 16.0653 25.6513 15.3324C25.282 14.5994 25.0945 13.7216 25.0888 12.6989V4.36364H28.7195V12.0511C28.7251 12.8239 28.9325 13.4347 29.3416 13.8835C29.7507 14.3324 30.299 14.5568 30.9865 14.5568C31.424 14.5568 31.8331 14.4574 32.2138 14.2585C32.5945 14.054 32.9013 13.7528 33.1342 13.3551C33.3729 12.9574 33.4893 12.4659 33.4837 11.8807Z" fill="#043A53"/>
<path d="M50.9105 8.09659L47.5866 8.30114C47.5298 8.01705 47.4077 7.76136 47.2202 7.53409C47.0327 7.30114 46.7855 7.11648 46.4787 6.98011C46.1776 6.83807 45.8168 6.76705 45.3963 6.76705C44.8338 6.76705 44.3594 6.88636 43.973 7.125C43.5866 7.35795 43.3935 7.67045 43.3935 8.0625C43.3935 8.375 43.5185 8.6392 43.7685 8.85511C44.0185 9.07102 44.4474 9.24432 45.0554 9.375L47.4247 9.85227C48.6974 10.1136 49.6463 10.5341 50.2713 11.1136C50.8963 11.6932 51.2088 12.4545 51.2088 13.3977C51.2088 14.2557 50.956 15.0085 50.4503 15.6562C49.9503 16.304 49.2628 16.8097 48.3878 17.1733C47.5185 17.5312 46.5156 17.7102 45.3793 17.7102C43.6463 17.7102 42.2656 17.3494 41.2372 16.6278C40.2145 15.9006 39.6151 14.9119 39.4389 13.6619L43.0099 13.4744C43.1179 14.0028 43.3793 14.4062 43.794 14.6847C44.2088 14.9574 44.74 15.0938 45.3878 15.0938C46.0241 15.0938 46.5355 14.9716 46.9219 14.7273C47.3139 14.4773 47.5128 14.1563 47.5185 13.7642C47.5128 13.4347 47.3736 13.1648 47.1008 12.9545C46.8281 12.7386 46.4077 12.5739 45.8395 12.4602L43.5724 12.0085C42.294 11.7528 41.3423 11.3097 40.7173 10.679C40.098 10.0483 39.7883 9.24432 39.7883 8.26705C39.7883 7.42614 40.0156 6.7017 40.4702 6.09375C40.9304 5.4858 41.5753 5.01705 42.4048 4.6875C43.2401 4.35795 44.2173 4.19318 45.3366 4.19318C46.9901 4.19318 48.2912 4.54261 49.2401 5.24148C50.1946 5.94034 50.7514 6.89205 50.9105 8.09659Z" fill="#043A53"/>
<path d="M60.4581 4.36364V7.09091H52.5746V4.36364H60.4581ZM54.3643 1.22727H57.995V13.4318C57.995 13.767 58.0462 14.0284 58.1484 14.2159C58.2507 14.3977 58.3927 14.5256 58.5746 14.5994C58.7621 14.6733 58.978 14.7102 59.2223 14.7102C59.3927 14.7102 59.5632 14.696 59.7337 14.6676C59.9041 14.6335 60.0348 14.608 60.1257 14.5909L60.6967 17.2926C60.5149 17.3494 60.2592 17.4148 59.9297 17.4886C59.6001 17.5682 59.1996 17.6165 58.728 17.6335C57.853 17.6676 57.0859 17.5511 56.4268 17.2841C55.7734 17.017 55.2649 16.6023 54.9013 16.0398C54.5376 15.4773 54.3587 14.767 54.3643 13.9091V1.22727Z" fill="#043A53"/>
<path d="M68.5973 17.7102C67.2564 17.7102 66.103 17.4261 65.1371 16.858C64.1768 16.2841 63.4382 15.4886 62.9212 14.4716C62.4098 13.4545 62.1541 12.2841 62.1541 10.9602C62.1541 9.61932 62.4126 8.44318 62.9297 7.43182C63.4524 6.41477 64.1939 5.62216 65.1541 5.05398C66.1143 4.48011 67.2564 4.19318 68.5802 4.19318C69.7223 4.19318 70.7223 4.40057 71.5802 4.81534C72.4382 5.23011 73.1172 5.8125 73.6172 6.5625C74.1172 7.3125 74.3927 8.19318 74.4439 9.20455H71.0177C70.9212 8.55114 70.6655 8.02557 70.2507 7.62784C69.8416 7.22443 69.3047 7.02273 68.6399 7.02273C68.0774 7.02273 67.5859 7.17614 67.1655 7.48295C66.7507 7.78409 66.4268 8.22443 66.1939 8.80398C65.9609 9.38352 65.8444 10.0852 65.8444 10.9091C65.8444 11.7443 65.9581 12.4545 66.1854 13.0398C66.4183 13.625 66.745 14.071 67.1655 14.3778C67.5859 14.6847 68.0774 14.8381 68.6399 14.8381C69.0547 14.8381 69.4268 14.7528 69.7564 14.5824C70.0916 14.4119 70.3672 14.1648 70.5831 13.8409C70.8047 13.5114 70.9496 13.1165 71.0177 12.6562H74.4439C74.3871 13.6562 74.1143 14.5369 73.6257 15.2983C73.1427 16.054 72.4751 16.6449 71.6229 17.071C70.7706 17.4972 69.7621 17.7102 68.5973 17.7102Z" fill="#043A53"/>
<path d="M82.6832 17.7102C81.3594 17.7102 80.2145 17.429 79.2486 16.8665C78.2883 16.2983 77.5469 15.5085 77.0241 14.4972C76.5014 13.4801 76.24 12.3011 76.24 10.9602C76.24 9.60795 76.5014 8.42614 77.0241 7.41477C77.5469 6.39773 78.2883 5.60795 79.2486 5.04545C80.2145 4.47727 81.3594 4.19318 82.6832 4.19318C84.0071 4.19318 85.1491 4.47727 86.1094 5.04545C87.0753 5.60795 87.8196 6.39773 88.3423 7.41477C88.865 8.42614 89.1264 9.60795 89.1264 10.9602C89.1264 12.3011 88.865 13.4801 88.3423 14.4972C87.8196 15.5085 87.0753 16.2983 86.1094 16.8665C85.1491 17.429 84.0071 17.7102 82.6832 17.7102ZM82.7003 14.8977C83.3025 14.8977 83.8054 14.7273 84.2088 14.3864C84.6122 14.0398 84.9162 13.5682 85.1207 12.9716C85.3309 12.375 85.4361 11.696 85.4361 10.9347C85.4361 10.1733 85.3309 9.49432 85.1207 8.89773C84.9162 8.30114 84.6122 7.82955 84.2088 7.48295C83.8054 7.13636 83.3025 6.96307 82.7003 6.96307C82.0923 6.96307 81.5809 7.13636 81.1662 7.48295C80.7571 7.82955 80.4474 8.30114 80.2372 8.89773C80.0327 9.49432 79.9304 10.1733 79.9304 10.9347C79.9304 11.696 80.0327 12.375 80.2372 12.9716C80.4474 13.5682 80.7571 14.0398 81.1662 14.3864C81.5809 14.7273 82.0923 14.8977 82.7003 14.8977Z" fill="#043A53"/>
<path d="M93.6094 17.6761C93.0469 17.6761 92.5639 17.4773 92.1605 17.0795C91.7628 16.6761 91.5639 16.1932 91.5639 15.6307C91.5639 15.0739 91.7628 14.5966 92.1605 14.1989C92.5639 13.8011 93.0469 13.6023 93.6094 13.6023C94.1548 13.6023 94.6321 13.8011 95.0412 14.1989C95.4503 14.5966 95.6548 15.0739 95.6548 15.6307C95.6548 16.0057 95.5582 16.3494 95.365 16.6619C95.1775 16.9688 94.9304 17.2159 94.6236 17.4034C94.3167 17.5852 93.9787 17.6761 93.6094 17.6761Z" fill="#043A53"/>
</svg>
